<?xml version="1.0" encoding="utf-8"?>
<!-- Generator: Adobe Illustrator 18.0.0, SVG Export Plug-In . SVG Version: 6.00 Build 0)  -->
<!DOCTYPE svg PUBLIC "-//W3C//DTD SVG 1.1//EN" "http://www.w3.org/Graphics/SVG/1.1/DTD/svg11.dtd">
<svg version="1.1" xmlns="http://www.w3.org/2000/svg" xmlns:xlink="http://www.w3.org/1999/xlink" x="0px" y="0px"
	 viewBox="0 0 364 158" enable-background="new 0 0 364 158" xml:space="preserve">
<g id="background">
</g>
<g id="Objects">
	<g>
		<g>
			<g>
				<path fill-rule="evenodd" clip-rule="evenodd" fill="#4D4D4D" d="M152,4h194.5c4,0,7.4,3.3,7.4,7.4v107.3c0,4-3.3,7.4-7.4,7.4
					H152c-4,0-7.4-3.3-7.4-7.4V11.4C144.6,7.3,147.9,4,152,4z"/>
				<rect x="153.8" y="13.2" fill-rule="evenodd" clip-rule="evenodd" fill="#E6E6E6" width="190.9" height="103.7"/>
			</g>
			<rect x="153.8" y="13.2" fill-rule="evenodd" clip-rule="evenodd" fill="#CCCCCC" width="190.9" height="14.5"/>
			<g>
				<rect x="158.1" y="17.5" fill-rule="evenodd" clip-rule="evenodd" fill="#FEFEFE" width="182.2" height="5.8"/>
			</g>
			<g>
				<rect x="162.7" y="36" fill-rule="evenodd" clip-rule="evenodd" fill="#C9C9C9" width="24.7" height="20.2"/>
				<rect x="192.4" y="36" fill-rule="evenodd" clip-rule="evenodd" fill="#C9C9C9" width="24.7" height="20.2"/>
				<rect x="222.1" y="36" fill-rule="evenodd" clip-rule="evenodd" fill="#C9C9C9" width="24.7" height="20.2"/>
				<rect x="251.8" y="36" fill-rule="evenodd" clip-rule="evenodd" fill="#C9C9C9" width="24.7" height="20.2"/>
				<rect x="281.5" y="36" fill-rule="evenodd" clip-rule="evenodd" fill="#C9C9C9" width="24.7" height="20.2"/>
				<rect x="311.2" y="36" fill-rule="evenodd" clip-rule="evenodd" fill="#C9C9C9" width="24.7" height="20.2"/>
				<rect x="162.7" y="62.2" fill-rule="evenodd" clip-rule="evenodd" fill="#C9C9C9" width="24.7" height="20.2"/>
				<rect x="162.7" y="88.3" fill-rule="evenodd" clip-rule="evenodd" fill="#C9C9C9" width="24.7" height="20.2"/>
				<rect x="192.4" y="62.2" fill-rule="evenodd" clip-rule="evenodd" fill="#C9C9C9" width="24.7" height="20.2"/>
				<rect x="192.4" y="88.3" fill-rule="evenodd" clip-rule="evenodd" fill="#C9C9C9" width="24.7" height="20.2"/>
				<rect x="222.1" y="62.2" fill-rule="evenodd" clip-rule="evenodd" fill="#C9C9C9" width="24.7" height="20.2"/>
				<rect x="222.1" y="88.3" fill-rule="evenodd" clip-rule="evenodd" fill="#C9C9C9" width="24.7" height="20.2"/>
				<rect x="251.8" y="62.2" fill-rule="evenodd" clip-rule="evenodd" fill="#C9C9C9" width="24.7" height="20.2"/>
				<rect x="251.8" y="88.3" fill-rule="evenodd" clip-rule="evenodd" fill="#C9C9C9" width="24.7" height="20.2"/>
				<rect x="281.5" y="62.2" fill-rule="evenodd" clip-rule="evenodd" fill="#C9C9C9" width="24.7" height="20.2"/>
				<rect x="281.5" y="88.3" fill-rule="evenodd" clip-rule="evenodd" fill="#C9C9C9" width="24.7" height="20.2"/>
				<rect x="311.2" y="62.2" fill-rule="evenodd" clip-rule="evenodd" fill="#C9C9C9" width="24.7" height="20.2"/>
				<rect x="311.2" y="88.3" fill-rule="evenodd" clip-rule="evenodd" fill="#C9C9C9" width="24.7" height="20.2"/>
			</g>
			<rect x="227.7" y="122.1" fill-rule="evenodd" clip-rule="evenodd" fill="#4D4D4D" width="43" height="12.3"/>
			<rect x="191.5" y="131.2" fill-rule="evenodd" clip-rule="evenodd" fill="#4D4D4D" width="115.5" height="10.4"/>
		</g>
		<g>
			<path fill-rule="evenodd" clip-rule="evenodd" fill="#4D4D4D" d="M42.1,52.4h150.3c3.1,0,5.7,2.6,5.7,5.7v83.4
				c0,3.1-2.6,5.7-5.7,5.7H41.2c-3.1,0-5.7-2.6-5.7-5.7V59C35.5,55.4,38.5,52.4,42.1,52.4z"/>
			<rect x="42.6" y="59.5" fill-rule="evenodd" clip-rule="evenodd" fill="#E6E6E6" width="148.3" height="80.6"/>
			<rect x="50.1" y="70.6" fill-rule="evenodd" clip-rule="evenodd" fill="#CCCCCC" width="61.2" height="4.5"/>
			<g>
				<rect x="78.2" y="84.2" fill-rule="evenodd" clip-rule="evenodd" fill="#CCCCCC" width="22.3" height="19.9"/>
				<rect x="105.8" y="84.2" fill-rule="evenodd" clip-rule="evenodd" fill="#CCCCCC" width="22.3" height="19.9"/>
				<rect x="133.5" y="84.2" fill-rule="evenodd" clip-rule="evenodd" fill="#CCCCCC" width="22.3" height="19.9"/>
				<rect x="161.1" y="84.2" fill-rule="evenodd" clip-rule="evenodd" fill="#CCCCCC" width="22.3" height="19.9"/>
				<rect x="50.1" y="84.2" fill-rule="evenodd" clip-rule="evenodd" fill="#CCCCCC" width="22.3" height="19.9"/>
				<rect x="78.2" y="110.3" fill-rule="evenodd" clip-rule="evenodd" fill="#CCCCCC" width="22.3" height="19.9"/>
				<rect x="105.8" y="110.3" fill-rule="evenodd" clip-rule="evenodd" fill="#CCCCCC" width="22.3" height="19.9"/>
				<rect x="133.5" y="110.3" fill-rule="evenodd" clip-rule="evenodd" fill="#CCCCCC" width="22.3" height="19.9"/>
				<rect x="161.1" y="110.3" fill-rule="evenodd" clip-rule="evenodd" fill="#CCCCCC" width="22.3" height="19.9"/>
				<rect x="50.1" y="110.3" fill-rule="evenodd" clip-rule="evenodd" fill="#CCCCCC" width="22.3" height="19.9"/>
			</g>
		</g>
		<g>
			<path fill-rule="evenodd" clip-rule="evenodd" fill="#4D4D4D" d="M8,150.6V79c0-1.6,1.3-3,3-3h43.1c1.6,0,3,1.3,3,3V151
				c0,1.6-1.3,3-3,3H11.4C9.5,154,8,152.5,8,150.6z"/>
			<rect x="11.8" y="79.9" fill-rule="evenodd" clip-rule="evenodd" fill="#E6E6E6" width="41.4" height="66.5"/>
			<rect x="11.8" y="79.9" fill-rule="evenodd" clip-rule="evenodd" fill="#CCCCCC" width="41.4" height="14.1"/>
			<rect x="16.2" y="98" fill-rule="evenodd" clip-rule="evenodd" fill="#CCCCCC" width="32.6" height="12.3"/>
			<rect x="28.2" y="77.6" fill-rule="evenodd" clip-rule="evenodd" fill="#B3B3B3" width="8.6" height="0.6"/>
			<path fill-rule="evenodd" clip-rule="evenodd" fill="#333333" d="M32.5,151.9c1.1,0,1.9-0.9,1.9-1.9c0-1.1-0.9-1.9-1.9-1.9
				s-1.9,0.9-1.9,1.9C30.6,151,31.5,151.9,32.5,151.9z"/>
			<rect x="16.2" y="114.4" fill-rule="evenodd" clip-rule="evenodd" fill="#CCCCCC" width="32.6" height="12.3"/>
			<rect x="16.2" y="130.7" fill-rule="evenodd" clip-rule="evenodd" fill="#CCCCCC" width="32.6" height="12.3"/>
		</g>
	</g>
</g>
</svg>
