<?xml version="1.0" encoding="utf-8"?>
<!-- Generator: Adobe Illustrator 18.0.0, SVG Export Plug-In . SVG Version: 6.00 Build 0)  -->
<!DOCTYPE svg PUBLIC "-//W3C//DTD SVG 1.1//EN" "http://www.w3.org/Graphics/SVG/1.1/DTD/svg11.dtd">
<svg version="1.1" id="Layer_1" xmlns="http://www.w3.org/2000/svg" xmlns:xlink="http://www.w3.org/1999/xlink" x="0px" y="0px"
	 viewBox="-58 81 394 144" enable-background="new -58 81 394 144" xml:space="preserve">
<g>
	<text transform="matrix(1 0 0 1 84.1743 165.0565)" fill="#FFFFFF" font-family="'MyriadPro-Regular'" font-size="35.6436">ebby</text>
	<text transform="matrix(1 0 0 1 206.7861 164.8592)" fill="#FFFFFF" font-family="'MyriadPro-Regular'" font-size="35.6436">ax</text>
	
		<text transform="matrix(1 0 0 1 -5.269694e-05 169.9938)" fill="#FFFFFF" font-family="'AdobeDevanagari-Regular'" font-size="71.2871">&lt;</text>
	<text transform="matrix(1 0 0 1 242.5733 172.2108)" fill="#FFFFFF" font-family="'AdobeDevanagari-Regular'" font-size="71.2871">/&gt;</text>
</g>
<g>
	<path fill="#FFFFFF" d="M177.3,131.7H175l-2.4,33.4h4.2l0.9-14.3c0.3-5,0.6-10.5,0.6-14.7h0.1l0,0L177.3,131.7z"/>
	<path fill="#FFFFFF" d="M189.5,158.6c-0.9-3.3-1.9-6.8-3.3-10.7l-5.6-16.2l0,0l5.6,16.2C187.6,151.8,188.6,155.2,189.5,158.6z"/>
	<path fill="#FFFFFF" d="M189.8,159.1c0-0.1,0-0.3,0.1-0.3C189.8,158.8,189.8,158.9,189.8,159.1h-0.1l0,0H189.8z"/>
	<path fill="#FFFFFF" d="M204.7,131.7h-2.4l-1.2,4.3c-1.2,3.9-2.5,8-4.2,12.6l-5.9,16.2h-3.3l0,0h3.3l5.9-16.2
		c1.6-4.6,3.1-8.8,4.2-12.6h0.1c0,4.2,0.3,9.8,0.4,14.4l0.9,14.7h4.2L204.7,131.7z"/>
	<path fill="#FFFFFF" d="M199.2,131.7h3.1l0,0H199.2l-5.9,16.2c-1.5,4-2.5,7.6-3.4,10.8c0.9-3.3,1.9-6.8,3.4-10.8L199.2,131.7z"/>
	<path fill="#FFFFFF" d="M178.5,136L178.5,136L178.5,136c0.9,4,2.2,8.3,3.9,12.9l5.3,15.9l0,0l-5.3-15.9
		C180.7,144.2,179.4,139.9,178.5,136z"/>
	<polygon fill="#FFFFFF" points="177.3,131.7 180.4,131.7 180.4,131.7 	"/>
	<path fill="#FFFFFF" d="M189.7,159.1c0-0.1-0.1-0.3-0.1-0.4C189.5,158.8,189.5,158.9,189.7,159.1L189.7,159.1z"/>
	<path fill="#FFFFFF" d="M196.9,148.7c1.6-4.6,3.1-8.8,4.2-12.6l1.2-4.3h-3.1l-5.9,16.2c-1.5,4-2.5,7.6-3.4,10.8
		c0,0.1,0,0.3-0.1,0.3h-0.1l0,0l0,0c0-0.1-0.1-0.3-0.1-0.4c-0.9-3.3-1.9-6.8-3.3-10.8l-5.6-16.2h-3.1l1,4.3l0,0l0,0
		c0.9,4,2.2,8.3,3.9,12.9l5.3,15.9h3.3L196.9,148.7z"/>
</g>
<g>
	<path fill="#FFFFFF" d="M64.5,147.3L59.6,165l0,0L64.5,147.3c1.3-4.5,2.1-7.7,2.7-11.1l0,0C66.5,139.6,65.8,142.9,64.5,147.3z"/>
	<polygon fill="#FFFFFF" points="69.7,131 69.7,131 65,131 63.1,138.1 65,131 	"/>
	<path fill="#FFFFFF" d="M57.8,159.8c0,0,0,0.1,0,0.3h-0.1c-0.6-3.3-1.5-7.6-2.5-11.7l-4-17.4h-4.6l8.6,34.2H57l0.7-5
		C57.8,160,57.8,159.8,57.8,159.8z"/>
	<path fill="#FFFFFF" d="M68.8,144.2c-0.3-1.2-0.4-2.2-0.7-3.3C68.2,142,68.5,143,68.8,144.2z"/>
	<polygon fill="#FFFFFF" points="73.7,165 73.8,165 71.3,155 	"/>
	<path fill="#FFFFFF" d="M88.1,131h-4.5l-4.5,17.2c-1,4.3-2.1,8-2.7,11.7h-0.1c-0.4-3.6-1.5-7.6-2.4-11.7l-3-11.3l2.7,11.4
		c1,4,1.9,8.2,2.4,11.7l0,0l0.7,5h1.3L88.1,131z"/>
	<polygon fill="#FFFFFF" points="57,165 59.7,165 59.7,165 	"/>
	<polygon fill="#FFFFFF" points="73.8,165 77.1,165 77.1,165 	"/>
	<polygon fill="#FFFFFF" points="69.7,131 69.7,131 71,136.9 	"/>
	<path fill="#FFFFFF" d="M67.1,136.2L67.1,136.2L67.1,136.2c0.3,1.5,0.6,3.1,0.9,4.8C67.7,139.3,67.4,137.7,67.1,136.2L67.1,136.2z"
		/>
	<path fill="#FFFFFF" d="M68.8,144.2c0.1,1,0.4,1.9,0.7,3.1l1.9,7.7l-1.9-7.7C69.2,146.3,68.9,145.2,68.8,144.2z"/>
	<path fill="#FFFFFF" d="M63.1,138.1l-2.7,10.1c-1.2,4.3-2.2,8.3-2.7,11.6c0.6-3.4,1.6-7.3,2.7-11.6L63.1,138.1z"/>
	<path fill="#FFFFFF" d="M76.2,160c-0.4-3.6-1.5-7.6-2.4-11.7L71,136.9l-1.5-5.9h-4.6l-1.9,7.1l-2.7,10.1c-1.2,4.3-2.2,8.3-2.7,11.6
		c0,0.1,0,0.1,0,0.3l-0.7,5h2.7l4.9-17.8c1.2-4.5,2.1-7.7,2.7-11.1l0,0l0,0h0.1c0.1,1.5,0.4,3.1,0.7,4.8c0.1,1,0.4,2.2,0.7,3.3
		c0.1,1,0.4,1.9,0.7,3.1l1.9,7.7l2.4,10h3.3L76.2,160L76.2,160z"/>
</g>
</svg>
