<?xml version="1.0" encoding="utf-8"?>
<!-- Generator: Adobe Illustrator 18.0.0, SVG Export Plug-In . SVG Version: 6.00 Build 0)  -->
<!DOCTYPE svg PUBLIC "-//W3C//DTD SVG 1.1//EN" "http://www.w3.org/Graphics/SVG/1.1/DTD/svg11.dtd">
<svg version="1.1" xmlns="http://www.w3.org/2000/svg" xmlns:xlink="http://www.w3.org/1999/xlink" x="0px" y="0px"
	 viewBox="0 0 204.9 34.1" enable-background="new 0 0 204.9 34.1" xml:space="preserve">
<g id="Layer_1">
	<line fill="none" x1="395.7" y1="234.9" x2="394.9" y2="234.6"/>
	<g>
		<text transform="matrix(1 0 0 1 397.1776 30.823)" font-family="'MyriadPro-Regular'" font-size="24">ebby</text>
		<g>
			<g>
				<path d="M377.5,30.8l-5.8-23h3.1l2.7,11.6c0.7,2.9,1.3,5.7,1.7,7.9h0.1c0.4-2.3,1.1-5,1.9-8l3.1-11.6h3.1l2.8,11.6
					c0.6,2.7,1.3,5.4,1.6,7.9h0.1c0.5-2.5,1.1-5.1,1.8-7.9l3-11.6h3l-6.5,23h-3.1l-2.9-12c-0.7-2.9-1.2-5.2-1.5-7.5h-0.1
					c-0.4,2.3-0.9,4.5-1.8,7.5l-3.3,12H377.5z"/>
			</g>
		</g>
		<g>
			<path d="M476.3,21c-0.2-3.1-0.4-6.9-0.3-9.7h-0.1c-0.8,2.6-1.7,5.4-2.8,8.5l-4,10.9h-2.2L463.3,20c-1.1-3.2-2-6.1-2.6-8.7h-0.1
				c-0.1,2.8-0.2,6.6-0.4,9.9l-0.6,9.6h-2.8l1.6-22.5h3.7l3.8,10.9c0.9,2.8,1.7,5.2,2.3,7.6h0.1c0.6-2.3,1.4-4.7,2.4-7.6l4-10.9h3.7
				l1.4,22.5h-2.8L476.3,21z"/>
		</g>
		<text transform="matrix(1 0 0 1 479.7363 30.69)" font-family="'MyriadPro-Regular'" font-size="24">ax</text>
		<text transform="matrix(1 0 0 1 340.5001 34.1465)" fill="#FF0000" font-family="'AdobeDevanagari-Regular'" font-size="48">&lt;</text>
		<text transform="matrix(1 0 0 1 510.8328 35.6397)"><tspan x="0" y="0" font-family="'AdobeDevanagari-Regular'" font-size="48">/</tspan><tspan x="14.9" y="0" fill="#FF0000" font-family="'AdobeDevanagari-Regular'" font-size="48">&gt;</tspan></text>
	</g>
	<text transform="matrix(1 0 0 1 553.6953 19.3481)" font-family="'MyriadPro-Regular'" font-size="16.9571">®</text>
	<g>
		<path fill="#FF0000" d="M474.6,8.4l-4,10.9c-1,2.8-1.8,5.3-2.4,7.6h-0.1c-0.6-2.3-1.3-4.8-2.3-7.6l-3.8-10.9h-2.1l0.7,2.9l0,0
			c0.6,2.7,1.5,5.5,2.6,8.7l3.6,10.7h2.2l4-10.9c1.1-3.1,2.1-5.9,2.8-8.5l0.8-2.9H474.6z"/>
	</g>
	<line fill="none" x1="461.4" y1="35.6" x2="461.4" y2="35.7"/>
	<line fill="none" x1="476.6" y1="35.6" x2="476.5" y2="35.9"/>
	<g>
		<g>
			<path fill="#FF0000" d="M391.8,27.4L391.8,27.4c-0.4-2.4-1-5.1-1.6-7.9l-2.8-11.6h-3.1l-3.1,11.6c-0.8,3-1.5,5.7-1.9,8l-0.5,3.4
				h1.8l3.3-11.9c0.8-3,1.4-5.2,1.8-7.5h0.1c0.3,2.3,0.8,4.6,1.5,7.5l2.9,11.9h2.2L391.8,27.4z"/>
		</g>
	</g>
	<path fill="none" d="M392.4,51.6"/>
	<path fill="none" d="M392.9,55.1"/>
</g>
<g id="Layer_2">
	<g>
		<text transform="matrix(1 0 0 1 56.6775 26.6531)" font-family="'MyriadPro-Regular'" font-size="24">ebby</text>
		<text transform="matrix(1 0 0 1 139.2362 26.5201)" font-family="'MyriadPro-Regular'" font-size="24">ax</text>
		<text transform="matrix(1 0 0 1 0 29.9766)" fill="#00A99D" font-family="'AdobeDevanagari-Regular'" font-size="48">&lt;</text>
		<text transform="matrix(1 0 0 1 163.3327 31.4698)"><tspan x="0" y="0" font-family="'AdobeDevanagari-Regular'" font-size="48">/</tspan><tspan x="14.9" y="0" fill="#F15A24" font-family="'AdobeDevanagari-Regular'" font-size="48">&gt;</tspan></text>
	</g>
	<g>
		<path d="M119.4,4.2h-1.6l-1.6,22.5h2.8l0.6-9.6c0.2-3.4,0.4-7.1,0.4-9.9h0.1l0,0L119.4,4.2z"/>
		<path d="M127.6,22.3c-0.6-2.2-1.3-4.6-2.2-7.2l-3.8-10.9h0l3.8,10.9C126.3,17.7,127,20.1,127.6,22.3z"/>
		<path d="M127.8,22.6c0-0.1,0-0.2,0.1-0.2C127.8,22.5,127.8,22.5,127.8,22.6l-0.1,0c0,0,0,0,0,0L127.8,22.6z"/>
		<path d="M137.8,4.2h-1.6l-0.8,2.9c-0.8,2.6-1.7,5.4-2.8,8.5l-4,10.9h-2.2l0,0h2.2l4-10.9c1.1-3.1,2.1-5.9,2.8-8.5h0.1
			c0,2.8,0.2,6.6,0.3,9.7l0.6,9.9h2.8L137.8,4.2z"/>
		<path fill="#FF0000" d="M134.1,4.2h2.1l0,0L134.1,4.2l-4,10.9c-1,2.7-1.7,5.1-2.3,7.3c0.6-2.2,1.3-4.6,2.3-7.3L134.1,4.2z"/>
		<path fill="#FF0000" d="M120.2,7.1L120.2,7.1L120.2,7.1c0.6,2.7,1.5,5.6,2.6,8.7l3.6,10.7h0l-3.6-10.7
			C121.7,12.7,120.8,9.8,120.2,7.1z"/>
		<rect x="119.4" y="4.2" fill="#FF0000" width="2.1" height="0"/>
		<path fill="#FF0000" d="M127.7,22.6c0-0.1-0.1-0.2-0.1-0.3C127.6,22.4,127.6,22.5,127.7,22.6L127.7,22.6z"/>
		<path fill="#F15A24" d="M132.6,15.6c1.1-3.1,2.1-5.9,2.8-8.5l0.8-2.9h-2.1l-4,10.9c-1,2.7-1.7,5.1-2.3,7.3c0,0.1,0,0.2-0.1,0.2
			h-0.1c0,0,0,0,0,0h0c0-0.1-0.1-0.2-0.1-0.3c-0.6-2.2-1.3-4.6-2.2-7.3l-3.8-10.9h-2.1l0.7,2.9l0,0h0c0.6,2.7,1.5,5.6,2.6,8.7
			l3.6,10.7h2.2L132.6,15.6z"/>
	</g>
	<g>
		<path d="M43.4,14.7l-3.3,11.9h0L43.4,14.7c0.9-3,1.4-5.2,1.8-7.5h0C44.8,9.5,44.3,11.7,43.4,14.7z"/>
		<polygon points="46.9,3.7 46.9,3.7 43.8,3.7 42.5,8.5 43.8,3.7 		"/>
		<path d="M38.9,23.1c0,0,0,0.1,0,0.2h-0.1c-0.4-2.2-1-5.1-1.7-7.9L34.4,3.7h-3.1l5.8,23h1.3l0.5-3.4C38.9,23.2,38.9,23.1,38.9,23.1
			z"/>
		<path d="M46.3,12.6c-0.2-0.8-0.3-1.5-0.5-2.2C45.9,11.1,46.1,11.8,46.3,12.6z"/>
		<polygon points="49.6,26.7 49.7,26.7 48,19.9 		"/>
		<path d="M59.3,3.7h-3l-3,11.6c-0.7,2.9-1.4,5.4-1.8,7.9h-0.1c-0.3-2.4-1-5.1-1.6-7.9l-1.8-7.7l1.8,7.7c0.7,2.7,1.3,5.5,1.6,7.9h0
			l0.5,3.4h0.9L59.3,3.7z"/>
		<rect x="38.4" y="26.7" fill="#FF0000" width="1.8" height="0"/>
		<rect x="49.7" y="26.7" fill="#FF0000" width="2.2" height="0"/>
		<polygon fill="#FF0000" points="46.9,3.7 46.9,3.7 47.8,7.7 		"/>
		<path fill="#FF0000" d="M45.2,7.2C45.2,7.2,45.2,7.2,45.2,7.2L45.2,7.2c0.2,1,0.4,2.1,0.6,3.2C45.6,9.3,45.4,8.3,45.2,7.2
			L45.2,7.2z"/>
		<path fill="#FF0000" d="M46.3,12.6c0.1,0.7,0.3,1.3,0.5,2.1l1.3,5.2l-1.3-5.2C46.6,14,46.4,13.3,46.3,12.6z"/>
		<path fill="#FF0000" d="M42.5,8.5l-1.8,6.8c-0.8,2.9-1.5,5.6-1.8,7.8c0.4-2.3,1.1-4.9,1.8-7.8L42.5,8.5z"/>
		<path fill="#22B573" d="M51.3,23.2c-0.3-2.4-1-5.1-1.6-7.9l-1.8-7.7l-1-4h-3.1l-1.3,4.8l-1.8,6.8c-0.8,2.9-1.5,5.6-1.8,7.8
			c0,0.1,0,0.1,0,0.2l-0.5,3.4h1.8l3.3-11.9c0.8-3,1.4-5.2,1.8-7.5h0c0,0,0,0,0,0h0.1c0.1,1,0.3,2.1,0.5,3.2
			c0.1,0.7,0.3,1.5,0.5,2.2c0.1,0.7,0.3,1.3,0.5,2.1l1.3,5.2l1.6,6.7h2.2L51.3,23.2L51.3,23.2z"/>
	</g>
</g>
<g id="Layer_3">
</g>
</svg>
