<?xml version="1.0" encoding="utf-8"?>
<!-- Generator: Adobe Illustrator 18.0.0, SVG Export Plug-In . SVG Version: 6.00 Build 0)  -->
<!DOCTYPE svg PUBLIC "-//W3C//DTD SVG 1.1//EN" "http://www.w3.org/Graphics/SVG/1.1/DTD/svg11.dtd">
<svg version="1.1" id="Layer_1" xmlns="http://www.w3.org/2000/svg" xmlns:xlink="http://www.w3.org/1999/xlink" x="0px" y="0px"
	 viewBox="0 187 300 84" enable-background="new 0 187 300 84" xml:space="preserve">
<g>
	<g enable-background="new    ">
		<path fill="#FFFFFF" d="M102.1,231.3c0.1,3.2,2.1,4.6,4.5,4.6c1.7,0,2.7-0.3,3.6-0.7l0.4,1.7c-0.8,0.4-2.3,0.8-4.4,0.8
			c-4,0-6.5-2.7-6.5-6.6c0-4,2.3-7.1,6.2-7.1c4.3,0,5.4,3.8,5.4,6.2c0,0.5-0.1,0.9-0.1,1.1H102.1z M109.1,229.6
			c0-1.5-0.6-3.9-3.3-3.9c-2.4,0-3.5,2.2-3.7,3.9H109.1z"/>
		<path fill="#FFFFFF" d="M114.3,237.4c0.1-0.9,0.1-2.2,0.1-3.4v-15.9h2.4v8.3h0.1c0.8-1.5,2.4-2.4,4.5-2.4c3.3,0,5.6,2.7,5.5,6.7
			c0,4.7-3,7-5.9,7c-1.9,0-3.4-0.7-4.4-2.5h-0.1l-0.1,2.2H114.3z M116.7,232.2c0,0.3,0.1,0.6,0.1,0.9c0.5,1.7,1.8,2.8,3.6,2.8
			c2.5,0,4-2,4-5c0-2.6-1.4-4.9-3.9-4.9c-1.6,0-3.1,1.1-3.6,2.9c-0.1,0.3-0.1,0.6-0.1,1V232.2z"/>
		<path fill="#FFFFFF" d="M129.7,237.4c0.1-0.9,0.1-2.2,0.1-3.4v-15.9h2.4v8.3h0.1c0.8-1.5,2.4-2.4,4.5-2.4c3.3,0,5.6,2.7,5.5,6.7
			c0,4.7-3,7-5.9,7c-1.9,0-3.4-0.7-4.4-2.5h-0.1l-0.1,2.2H129.7z M132.2,232.2c0,0.3,0.1,0.6,0.1,0.9c0.5,1.7,1.8,2.8,3.6,2.8
			c2.5,0,4-2,4-5c0-2.6-1.4-4.9-3.9-4.9c-1.6,0-3.1,1.1-3.6,2.9c-0.1,0.3-0.1,0.6-0.1,1V232.2z"/>
		<path fill="#FFFFFF" d="M145.9,224.3l2.9,7.8c0.3,0.9,0.6,1.9,0.8,2.7h0.1c0.2-0.8,0.5-1.8,0.8-2.7l2.6-7.7h2.5l-3.6,9.4
			c-1.7,4.5-2.9,6.8-4.5,8.2c-1.2,1-2.3,1.4-2.9,1.5l-0.6-2c0.6-0.2,1.4-0.6,2.1-1.2c0.7-0.5,1.5-1.4,2-2.7c0.1-0.2,0.2-0.4,0.2-0.6
			s-0.1-0.3-0.2-0.6l-4.9-12.1H145.9z"/>
	</g>
	<g enable-background="new    ">
		<path fill="#FFFFFF" d="M201.4,237.3l-0.2-1.7h-0.1c-0.7,1-2.1,2-4,2c-2.7,0-4-1.9-4-3.8c0-3.2,2.8-4.9,7.9-4.9v-0.3
			c0-1.1-0.3-3-3-3c-1.2,0-2.5,0.4-3.4,1l-0.5-1.6c1.1-0.7,2.7-1.2,4.3-1.2c4,0,5,2.7,5,5.4v4.9c0,1.1,0.1,2.3,0.2,3.1H201.4z
			 M201.1,230.6c-2.6-0.1-5.6,0.4-5.6,3c0,1.5,1,2.3,2.3,2.3c1.7,0,2.8-1.1,3.2-2.2c0.1-0.2,0.1-0.5,0.1-0.8V230.6z"/>
		<path fill="#FFFFFF" d="M208.3,224.1l1.9,2.8c0.5,0.7,0.9,1.4,1.3,2.1h0.1c0.4-0.8,0.9-1.5,1.3-2.2l1.8-2.8h2.6l-4.5,6.4l4.6,6.8
			h-2.7l-1.9-3c-0.5-0.8-1-1.5-1.4-2.3h-0.1c-0.4,0.8-0.9,1.5-1.4,2.3l-1.9,3h-2.6l4.7-6.7l-4.5-6.4H208.3z"/>
	</g>
	<g enable-background="new    ">
		<path fill="#FFFFFF" d="M38,229.2V227l22-11.8v2.8l-19,10.2v0.1l19,10.2v2.8L38,229.2z"/>
	</g>
	<g enable-background="new    ">
		<path fill="#FFFFFF" d="M223.7,245.1h-3l10.9-35.6h3L223.7,245.1z"/>
		<path fill="#FFFFFF" d="M239.6,242.9v-2.8l19-10.2v-0.1l-19-10.2v-2.8l22,11.8v2.3L239.6,242.9z"/>
	</g>
</g>
<g>
	<g>
		<path fill="#FFFFFF" d="M169.7,212H168l-1.8,25.4h3.2l0.7-10.9c0.2-3.8,0.5-8,0.5-11.2h0.1l0,0L169.7,212z"/>
	</g>
	<g>
		<path fill="#FFFFFF" d="M179,232.5c-0.7-2.5-1.4-5.2-2.5-8.1l-4.3-12.3l0,0l4.3,12.3C177.6,227.3,178.3,229.9,179,232.5z"/>
	</g>
	<g>
		<path fill="#FFFFFF" d="M179.2,232.9c0-0.1,0-0.2,0.1-0.2C179.2,232.7,179.2,232.7,179.2,232.9L179.2,232.9L179.2,232.9
			L179.2,232.9z"/>
	</g>
	<g>
		<path fill="#FFFFFF" d="M190.6,212h-1.8l-0.9,3.3c-0.9,3-1.9,6.1-3.2,9.6l-4.5,12.3h-2.5l0,0h2.5l4.5-12.3
			c1.2-3.5,2.4-6.7,3.2-9.6h0.1c0,3.2,0.2,7.5,0.3,11l0.7,11.2h3.2L190.6,212z"/>
	</g>
	<g>
		<path fill="#FFFFFF" d="M186.4,212h2.4l0,0H186.4l-4.5,12.3c-1.1,3-1.9,5.8-2.6,8.2c0.7-2.5,1.4-5.2,2.6-8.2L186.4,212z"/>
	</g>
	<g>
		<path fill="#FFFFFF" d="M170.6,215.3L170.6,215.3L170.6,215.3c0.7,3,1.7,6.3,3,9.8l4,12.1l0,0l-4-12.1
			C172.3,221.6,171.3,218.3,170.6,215.3z"/>
	</g>
	<g>
		<polygon fill="#FFFFFF" points="169.7,212 172.1,212 172.1,212 		"/>
	</g>
	<g>
		<path fill="#FFFFFF" d="M179.2,232.9c0-0.1-0.1-0.2-0.1-0.3C179,232.7,179,232.7,179.2,232.9L179.2,232.9z"/>
	</g>
	<g>
		<path fill="#FFFFFF" d="M184.6,225c1.2-3.5,2.4-6.7,3.2-9.6l0.9-3.3h-2.4l-4.5,12.3c-1.1,3-1.9,5.8-2.6,8.2c0,0.1,0,0.2-0.1,0.2
			h-0.1l0,0l0,0c0-0.1-0.1-0.2-0.1-0.3c-0.7-2.5-1.4-5.2-2.5-8.2l-4.3-12.3h-2.4l0.8,3.3l0,0l0,0c0.7,3,1.7,6.3,3,9.8l4,12.1h2.5
			L184.6,225z"/>
	</g>
</g>
<g>
	<g>
		<path fill="#FFFFFF" d="M83.8,223.9l-3.7,13.5l0,0L83.8,223.9c1-3.4,1.6-5.9,2.1-8.5l0,0C85.3,218.1,84.8,220.6,83.8,223.9z"/>
	</g>
	<g>
		<polygon fill="#FFFFFF" points="87.8,211.5 87.8,211.5 84.2,211.5 82.8,216.9 84.2,211.5 		"/>
	</g>
	<g>
		<path fill="#FFFFFF" d="M78.7,233.4c0,0,0,0.1,0,0.2h-0.1c-0.5-2.5-1.1-5.8-1.9-8.9l-3-13.2h-3.5l6.5,26h1.4l0.5-3.8
			C78.7,233.6,78.7,233.4,78.7,233.4z"/>
	</g>
	<g>
		<path fill="#FFFFFF" d="M87.1,221.6c-0.2-0.9-0.3-1.7-0.5-2.5C86.6,219.9,86.9,220.6,87.1,221.6z"/>
	</g>
	<g>
		<polygon fill="#FFFFFF" points="90.8,237.4 90.9,237.4 89,229.8 		"/>
	</g>
	<g>
		<path fill="#FFFFFF" d="M101.8,211.5h-3.4l-3.4,13.1c-0.8,3.3-1.6,6.1-2.1,8.9h-0.1c-0.3-2.7-1.1-5.8-1.8-8.9l-2.3-8.6l2.1,8.7
			c0.8,3,1.4,6.2,1.8,8.9l0,0l0.5,3.8h1L101.8,211.5z"/>
	</g>
	<g>
		<polygon fill="#FFFFFF" points="78.1,237.4 80.2,237.4 80.2,237.4 		"/>
	</g>
	<g>
		<polygon fill="#FFFFFF" points="90.9,237.4 93.4,237.4 93.4,237.4 		"/>
	</g>
	<g>
		<polygon fill="#FFFFFF" points="87.8,211.5 87.8,211.5 88.8,216 		"/>
	</g>
	<g>
		<path fill="#FFFFFF" d="M85.8,215.5L85.8,215.5L85.8,215.5c0.2,1.1,0.5,2.4,0.7,3.7C86.3,217.8,86,216.6,85.8,215.5L85.8,215.5z"
			/>
	</g>
	<g>
		<path fill="#FFFFFF" d="M87.1,221.6c0.1,0.8,0.3,1.4,0.5,2.4l1.4,5.9l-1.4-5.9C87.4,223.2,87.2,222.3,87.1,221.6z"/>
	</g>
	<g>
		<path fill="#FFFFFF" d="M82.8,216.9l-2.1,7.7c-0.9,3.3-1.7,6.3-2.1,8.8c0.5-2.6,1.2-5.6,2.1-8.8L82.8,216.9z"/>
	</g>
	<g>
		<path fill="#FFFFFF" d="M92.7,233.6c-0.3-2.7-1.1-5.8-1.8-8.9l-2.1-8.7l-1.1-4.5h-3.5l-1.4,5.4l-2.1,7.7c-0.9,3.3-1.7,6.3-2.1,8.8
			c0,0.1,0,0.1,0,0.2l-0.5,3.8h2.1l3.7-13.6c0.9-3.4,1.6-5.9,2.1-8.5l0,0l0,0H86c0.1,1.1,0.3,2.4,0.5,3.7c0.1,0.8,0.3,1.7,0.5,2.5
			c0.1,0.8,0.3,1.4,0.5,2.4l1.4,5.9l1.8,7.6h2.5L92.7,233.6L92.7,233.6z"/>
	</g>
</g>
</svg>
