<?xml version="1.0" encoding="utf-8"?>
<!-- Generator: Adobe Illustrator 18.0.0, SVG Export Plug-In . SVG Version: 6.00 Build 0)  -->
<!DOCTYPE svg PUBLIC "-//W3C//DTD SVG 1.1//EN" "http://www.w3.org/Graphics/SVG/1.1/DTD/svg11.dtd">
<svg version="1.1" id="Layer_1" xmlns="http://www.w3.org/2000/svg" xmlns:xlink="http://www.w3.org/1999/xlink" x="0px" y="0px"
	 viewBox="0 0 202 39.6" enable-background="new 0 0 202 39.6" xml:space="preserve">
<rect x="-7.6" y="-16.4" width="241.5" height="73"/>
<g>
	<text transform="matrix(1 0 0 1 56.6775 29.9385)" fill="#FFFFFF" font-family="'MyriadPro-Regular'" font-size="24">ebby</text>
	<text transform="matrix(1 0 0 1 139.2362 29.8055)" fill="#FFFFFF" font-family="'MyriadPro-Regular'" font-size="24">ax</text>
	<text transform="matrix(1 0 0 1 0 33.262)" fill="#FFFFFF" font-family="'AdobeDevanagari-Regular'" font-size="48">&lt;</text>
	<text transform="matrix(1 0 0 1 163.3327 34.7552)" fill="#FFFFFF" font-family="'AdobeDevanagari-Regular'" font-size="48">/&gt;</text>
</g>
<g>
	<path fill="#FFFFFF" d="M119.4,7.5h-1.6l-1.6,22.5h2.8l0.6-9.6c0.2-3.4,0.4-7.1,0.4-9.9h0.1l0,0L119.4,7.5z"/>
	<path fill="#FFFFFF" d="M127.6,25.6c-0.6-2.2-1.3-4.6-2.2-7.2l-3.8-10.9h0l3.8,10.9C126.3,21,127,23.3,127.6,25.6z"/>
	<path fill="#FFFFFF" d="M127.8,25.9c0-0.1,0-0.2,0.1-0.2C127.8,25.7,127.8,25.8,127.8,25.9l-0.1,0c0,0,0,0,0,0L127.8,25.9z"/>
	<path fill="#FFFFFF" d="M137.8,7.5h-1.6l-0.8,2.9c-0.8,2.6-1.7,5.4-2.8,8.5l-4,10.9h-2.2l0,0h2.2l4-10.9c1.1-3.1,2.1-5.9,2.8-8.5
		h0.1c0,2.8,0.2,6.6,0.3,9.7l0.6,9.9h2.8L137.8,7.5z"/>
	<path fill="#FFFFFF" d="M134.1,7.5h2.1l0,0L134.1,7.5l-4,10.9c-1,2.7-1.7,5.1-2.3,7.3c0.6-2.2,1.3-4.6,2.3-7.3L134.1,7.5z"/>
	<path fill="#FFFFFF" d="M120.2,10.4L120.2,10.4L120.2,10.4c0.6,2.7,1.5,5.6,2.6,8.7l3.6,10.7h0l-3.6-10.7
		C121.7,15.9,120.8,13,120.2,10.4z"/>
	<rect x="119.4" y="7.5" fill="#FFFFFF" width="2.1" height="0"/>
	<path fill="#FFFFFF" d="M127.7,25.9c0-0.1-0.1-0.2-0.1-0.3C127.6,25.7,127.6,25.8,127.7,25.9L127.7,25.9z"/>
	<path fill="#FFFFFF" d="M132.6,18.9c1.1-3.1,2.1-5.9,2.8-8.5l0.8-2.9h-2.1l-4,10.9c-1,2.7-1.7,5.1-2.3,7.3c0,0.1,0,0.2-0.1,0.2
		h-0.1c0,0,0,0,0,0h0c0-0.1-0.1-0.2-0.1-0.3c-0.6-2.2-1.3-4.6-2.2-7.3l-3.8-10.9h-2.1l0.7,2.9l0,0h0c0.6,2.7,1.5,5.6,2.6,8.7
		l3.6,10.7h2.2L132.6,18.9z"/>
</g>
<g>
	<path fill="#FFFFFF" d="M43.4,18l-3.3,11.9h0L43.4,18c0.9-3,1.4-5.2,1.8-7.5h0C44.8,12.8,44.3,15,43.4,18z"/>
	<polygon fill="#FFFFFF" points="46.9,7 46.9,7 43.8,7 42.5,11.8 43.8,7 	"/>
	<path fill="#FFFFFF" d="M38.9,26.4c0,0,0,0.1,0,0.2h-0.1c-0.4-2.2-1-5.1-1.7-7.9L34.4,7h-3.1l5.8,23h1.3l0.5-3.4
		C38.9,26.5,38.9,26.4,38.9,26.4z"/>
	<path fill="#FFFFFF" d="M46.3,15.9c-0.2-0.8-0.3-1.5-0.5-2.2C45.9,14.4,46.1,15.1,46.3,15.9z"/>
	<polygon fill="#FFFFFF" points="49.6,29.9 49.7,29.9 48,23.2 	"/>
	<path fill="#FFFFFF" d="M59.3,7h-3l-3,11.6c-0.7,2.9-1.4,5.4-1.8,7.9h-0.1c-0.3-2.4-1-5.1-1.6-7.9L47.8,11l1.8,7.7
		c0.7,2.7,1.3,5.5,1.6,7.9h0l0.5,3.4h0.9L59.3,7z"/>
	<rect x="38.4" y="29.9" fill="#FFFFFF" width="1.8" height="0"/>
	<rect x="49.7" y="29.9" fill="#FFFFFF" width="2.2" height="0"/>
	<polygon fill="#FFFFFF" points="46.9,7 46.9,7 47.8,11 	"/>
	<path fill="#FFFFFF" d="M45.2,10.5C45.2,10.5,45.2,10.5,45.2,10.5L45.2,10.5c0.2,1,0.4,2.1,0.6,3.2C45.6,12.6,45.4,11.5,45.2,10.5
		L45.2,10.5z"/>
	<path fill="#FFFFFF" d="M46.3,15.9c0.1,0.7,0.3,1.3,0.5,2.1l1.3,5.2L46.8,18C46.6,17.3,46.4,16.6,46.3,15.9z"/>
	<path fill="#FFFFFF" d="M42.5,11.8l-1.8,6.8c-0.8,2.9-1.5,5.6-1.8,7.8c0.4-2.3,1.1-4.9,1.8-7.8L42.5,11.8z"/>
	<path fill="#FFFFFF" d="M51.3,26.5c-0.3-2.4-1-5.1-1.6-7.9L47.8,11l-1-4h-3.1l-1.3,4.8l-1.8,6.8c-0.8,2.9-1.5,5.6-1.8,7.8
		c0,0.1,0,0.1,0,0.2l-0.5,3.4h1.8L43.4,18c0.8-3,1.4-5.2,1.8-7.5h0c0,0,0,0,0,0h0.1c0.1,1,0.3,2.1,0.5,3.2c0.1,0.7,0.3,1.5,0.5,2.2
		c0.1,0.7,0.3,1.3,0.5,2.1l1.3,5.2l1.6,6.7h2.2L51.3,26.5L51.3,26.5z"/>
</g>
</svg>
