<?xml version="1.0" encoding="utf-8"?>
<!-- Generator: Adobe Illustrator 18.0.0, SVG Export Plug-In . SVG Version: 6.00 Build 0)  -->
<!DOCTYPE svg PUBLIC "-//W3C//DTD SVG 1.1//EN" "http://www.w3.org/Graphics/SVG/1.1/DTD/svg11.dtd">
<svg version="1.1" id="Layer_1" xmlns="http://www.w3.org/2000/svg" xmlns:xlink="http://www.w3.org/1999/xlink" x="0px" y="0px"
	 viewBox="-25 66 344 161" enable-background="new -25 66 344 161" xml:space="preserve">
<g id="Layer_1_1_" display="none">
	<line display="inline" fill="none" x1="579.4" y1="469" x2="578.2" y2="468.5"/>
	<g display="inline">
		<text transform="matrix(1 0 0 1 581.5199 170.1651)" font-family="'MyriadPro-Regular'" font-size="35.1391">ebby</text>
		<g>
			<g>
				<path d="M552.7,170.1l-8.5-33.7h4.5l4,17c1,4.2,1.9,8.3,2.5,11.6h0.1c0.6-3.4,1.6-7.3,2.8-11.7l4.5-17h4.5l4.1,17
					c0.9,4,1.9,7.9,2.3,11.6h0.1c0.7-3.7,1.6-7.5,2.6-11.6l4.4-17h4.4l-9.5,33.7h-4.5l-4.2-17.6c-1-4.2-1.8-7.6-2.2-11h-0.1
					c-0.6,3.4-1.3,6.6-2.6,11l-4.8,17.6h-4.4V170.1z"/>
			</g>
		</g>
		<g>
			<path d="M697.4,155.8c-0.3-4.5-0.6-10.1-0.4-14.2h-0.1c-1.2,3.8-2.5,7.9-4.1,12.4l-5.9,16h-3.2l-5.3-15.7
				c-1.6-4.7-2.9-8.9-3.8-12.7h-0.1c-0.1,4.1-0.3,9.7-0.6,14.5l-0.9,14.1h-4.1l2.3-32.9h5.4l5.6,16c1.3,4.1,2.5,7.6,3.4,11.1h0.1
				c0.9-3.4,2-6.9,3.5-11.1l5.9-16h5.4l2,32.9h-4.1L697.4,155.8z"/>
		</g>
		<text transform="matrix(1 0 0 1 702.3958 169.9708)" font-family="'MyriadPro-Regular'" font-size="35.1391">ax</text>
		
			<text transform="matrix(1 0 0 1 498.5365 175.0316)" fill="#FF0000" font-family="'AdobeDevanagari-Regular'" font-size="70.2782">&lt;</text>
		<text transform="matrix(1 0 0 1 747.925 177.2179)" font-family="'AdobeDevanagari-Regular'" font-size="70.2782">/</text>
		
			<text transform="matrix(1 0 0 1 769.7403 177.2179)" fill="#FF0000" font-family="'AdobeDevanagari-Regular'" font-size="70.2782">&gt;</text>
	</g>
	<text transform="matrix(1 0 0 1 810.6818 153.3646)" display="inline" font-family="'MyriadPro-Regular'" font-size="24.8274">®</text>
	<g display="inline">
		<path fill="#FF0000" d="M694.9,137.3l-5.9,16c-1.5,4.1-2.6,7.8-3.5,11.1h-0.1c-0.9-3.4-1.9-7-3.4-11.1l-5.6-16h-3.1l1,4.2l0,0
			c0.9,4,2.2,8.1,3.8,12.7l5.3,15.7h3.2l5.9-16c1.6-4.5,3.1-8.6,4.1-12.4l1.2-4.2C697.8,137.3,694.9,137.3,694.9,137.3z"/>
	</g>
	<line display="inline" fill="none" x1="675.5" y1="177.2" x2="675.5" y2="177.3"/>
	<line display="inline" fill="none" x1="697.8" y1="177.2" x2="697.7" y2="177.6"/>
	<g display="inline">
		<g>
			<path fill="#FF0000" d="M573.6,165.2L573.6,165.2c-0.6-3.5-1.5-7.5-2.3-11.6l-4.1-17h-4.5l-4.5,17c-1.2,4.4-2.2,8.3-2.8,11.7
				l-0.7,5h2.6l4.8-17.4c1.2-4.4,2-7.6,2.6-11h0.1c0.4,3.4,1.2,6.7,2.2,11l4.2,17.4h3.2L573.6,165.2z"/>
		</g>
	</g>
	<path display="inline" fill="none" d="M574.5,200.6"/>
	<path display="inline" fill="none" d="M575.3,205.7"/>
</g>
<g id="Layer_2">
	<g>
		<g enable-background="new    ">
			<path d="M87.3,156.1c0.1,4.2,2.7,5.9,5.8,5.9c2.2,0,3.5-0.4,4.7-0.9l0.5,2.2c-1.1,0.5-3,1.1-5.7,1.1c-5.2,0-8.4-3.4-8.4-8.6
				c0-5.1,3-9.2,8-9.2c5.6,0,7,4.9,7,8c0,0.6-0.1,1.1-0.1,1.4H87.3z M96.3,153.9c0-2-0.8-5-4.3-5c-3.1,0-4.5,2.9-4.7,5H96.3z"/>
			<path d="M103,164.1c0.1-1.2,0.1-2.9,0.1-4.4v-20.6h3.1v10.7h0.1c1.1-1.9,3.1-3.1,5.8-3.1c4.2,0,7.2,3.5,7.2,8.7
				c0,6.1-3.8,9.1-7.6,9.1c-2.5,0-4.4-0.9-5.7-3.2h-0.1l-0.1,2.8H103z M106.2,157.2c0,0.4,0.1,0.8,0.1,1.1c0.6,2.1,2.4,3.6,4.6,3.6
				c3.2,0,5.2-2.6,5.2-6.5c0-3.4-1.8-6.3-5.1-6.3c-2.1,0-4.1,1.4-4.7,3.8c-0.1,0.4-0.2,0.8-0.2,1.3V157.2z"/>
			<path d="M123,164.1c0.1-1.2,0.1-2.9,0.1-4.4v-20.6h3.1v10.7h0.1c1.1-1.9,3.1-3.1,5.8-3.1c4.2,0,7.2,3.5,7.2,8.7
				c0,6.1-3.8,9.1-7.6,9.1c-2.5,0-4.4-0.9-5.7-3.2h-0.1l-0.1,2.8H123z M126.2,157.2c0,0.4,0.1,0.8,0.1,1.1c0.6,2.1,2.4,3.6,4.6,3.6
				c3.2,0,5.2-2.6,5.2-6.5c0-3.4-1.8-6.3-5.1-6.3c-2.1,0-4.1,1.4-4.7,3.8c-0.1,0.4-0.2,0.8-0.2,1.3V157.2z"/>
			<path d="M144,147.1l3.7,10.1c0.4,1.1,0.8,2.5,1.1,3.5h0.1c0.3-1,0.7-2.3,1.1-3.5l3.4-10h3.3l-4.6,12.1c-2.2,5.8-3.7,8.8-5.8,10.6
				c-1.5,1.3-3,1.9-3.8,2l-0.8-2.6c0.8-0.2,1.8-0.7,2.7-1.5c0.8-0.7,1.9-1.9,2.6-3.4c0.1-0.3,0.2-0.6,0.2-0.7s-0.1-0.4-0.2-0.8
				l-6.3-15.7H144z"/>
		</g>
		<g enable-background="new    ">
			<path d="M215.8,163.9l-0.2-2.1h-0.1c-0.9,1.3-2.8,2.5-5.2,2.5c-3.4,0-5.2-2.4-5.2-4.9c0-4.1,3.7-6.4,10.2-6.3v-0.4
				c0-1.4-0.4-3.9-3.9-3.9c-1.6,0-3.2,0.5-4.4,1.3l-0.7-2c1.4-0.9,3.4-1.5,5.6-1.5c5.2,0,6.5,3.5,6.5,7v6.4c0,1.5,0.1,2.9,0.3,4.1
				H215.8z M215.4,155.2c-3.4-0.1-7.2,0.5-7.2,3.8c0,2,1.3,3,2.9,3c2.2,0,3.6-1.4,4.1-2.8c0.1-0.3,0.2-0.7,0.2-1V155.2z"/>
			<path d="M224.8,146.9l2.4,3.7c0.6,0.9,1.2,1.8,1.7,2.8h0.1c0.6-1,1.1-1.9,1.7-2.8l2.4-3.6h3.3l-5.8,8.2l6,8.8h-3.5l-2.5-3.8
				c-0.7-1-1.2-1.9-1.8-3h-0.1c-0.6,1-1.2,1.9-1.8,3l-2.5,3.8h-3.4l6-8.7l-5.8-8.3H224.8z"/>
		</g>
		<g enable-background="new    ">
			<path fill="#00A99D" d="M4.2,153.4v-3l28.5-15.3v3.6L8.2,152v0.1l24.5,13.2v3.6L4.2,153.4z"/>
		</g>
		<g enable-background="new    ">
			<path d="M244.6,174h-3.9l14.2-46.2h3.9L244.6,174z"/>
		</g>
		<g enable-background="new    ">
			<path fill="#F15A24" d="M265.2,171.1v-3.6l24.6-13.2v-0.1L265.2,141v-3.6l28.5,15.3v3L265.2,171.1z"/>
		</g>
	</g>
	<g>
		<g>
			<path d="M174.8,131.2h-2.3l-2.3,32.9h4.1l0.9-14.1c0.3-5,0.6-10.4,0.6-14.5h0.1l0,0L174.8,131.2z"/>
		</g>
		<g>
			<path d="M186.8,157.7c-0.9-3.2-1.9-6.7-3.2-10.5l-5.6-16l0,0l5.6,16C184.9,151,185.9,154.5,186.8,157.7z"/>
		</g>
		<g>
			<path d="M187.1,158.1c0-0.1,0-0.3,0.1-0.3C187.1,158,187.1,158,187.1,158.1H187l0,0H187.1z"/>
		</g>
		<g>
			<path d="M201.8,131.2h-2.3l-1.2,4.2c-1.2,3.8-2.5,7.9-4.1,12.4l-5.9,16h-3.2l0,0h3.2l5.9-16c1.6-4.5,3.1-8.6,4.1-12.4h0.1
				c0,4.1,0.3,9.7,0.4,14.2l0.9,14.5h4.1L201.8,131.2z"/>
		</g>
		<g>
			<path fill="#FF0000" d="M196.3,131.2h3.1l0,0H196.3l-5.9,16c-1.5,4-2.5,7.5-3.4,10.7c0.9-3.2,1.9-6.7,3.4-10.7L196.3,131.2z"/>
		</g>
		<g>
			<path fill="#FF0000" d="M176,135.4L176,135.4L176,135.4c0.9,4,2.2,8.2,3.8,12.7l5.3,15.7l0,0l-5.3-15.7
				C178.2,143.6,176.9,139.4,176,135.4z"/>
		</g>
		<g>
			<polygon fill="#FF0000" points="174.8,131.2 177.9,131.2 177.9,131.2 			"/>
		</g>
		<g>
			<path fill="#FF0000" d="M187,158.1c0-0.1-0.1-0.3-0.1-0.4C186.8,157.8,186.8,158,187,158.1L187,158.1z"/>
		</g>
		<g>
			<path fill="#F15A24" d="M194.1,147.9c1.6-4.5,3.1-8.6,4.1-12.4l1.2-4.2h-3.1l-5.9,16c-1.5,4-2.5,7.5-3.4,10.7
				c0,0.1,0,0.3-0.1,0.3h-0.1l0,0l0,0c0-0.1-0.1-0.3-0.1-0.4c-0.9-3.2-1.9-6.7-3.2-10.7l-5.6-16h-3.1l1,4.2l0,0l0,0
				c0.9,4,2.2,8.2,3.8,12.7l5.3,15.7h3.2L194.1,147.9z"/>
		</g>
	</g>
	<g>
		<g>
			<path d="M63.5,146.6L58.7,164l0,0L63.5,146.6c1.3-4.4,2-7.6,2.6-11l0,0C65.6,138.9,64.9,142.2,63.5,146.6z"/>
		</g>
		<g>
			<polygon points="68.7,130.5 68.7,130.5 64.1,130.5 62.2,137.5 64.1,130.5 			"/>
		</g>
		<g>
			<path d="M57,158.9c0,0,0,0.1,0,0.3h-0.1c-0.6-3.2-1.5-7.5-2.5-11.6l-4-17.1h-4.5l8.5,33.7h1.9l0.7-5C57,159,57,158.9,57,158.9z"
				/>
		</g>
		<g>
			<path d="M67.8,143.5c-0.3-1.2-0.4-2.2-0.7-3.2C67.2,141.3,67.5,142.3,67.8,143.5z"/>
		</g>
		<g>
			<polygon points="72.6,164.1 72.8,164.1 70.3,154.2 			"/>
		</g>
		<g>
			<path d="M86.8,130.5h-4.4l-4.4,17c-1,4.2-2,7.9-2.6,11.6h-0.1c-0.4-3.5-1.5-7.5-2.3-11.6l-2.6-11.3l2.6,11.3
				c1,4,1.9,8.1,2.3,11.6l0,0l0.7,5h1.3L86.8,130.5z"/>
		</g>
		<g>
			<polygon fill="#FF0000" points="56.2,164.1 58.9,164.1 58.9,164.1 			"/>
		</g>
		<g>
			<polygon fill="#FF0000" points="72.8,164.1 76,164.1 76,164.1 			"/>
		</g>
		<g>
			<polygon fill="#FF0000" points="68.7,130.5 68.7,130.5 70,136.3 			"/>
		</g>
		<g>
			<path fill="#FF0000" d="M66.2,135.6L66.2,135.6L66.2,135.6c0.3,1.5,0.6,3.1,0.9,4.7C66.8,138.7,66.5,137.2,66.2,135.6L66.2,135.6
				z"/>
		</g>
		<g>
			<path fill="#FF0000" d="M67.8,143.5c0.1,1,0.4,1.9,0.7,3.1l1.9,7.6l-1.9-7.6C68.2,145.5,67.9,144.5,67.8,143.5z"/>
		</g>
		<g>
			<path fill="#FF0000" d="M62.2,137.5l-2.6,10c-1.2,4.2-2.2,8.2-2.6,11.4c0.6-3.4,1.6-7.2,2.6-11.4L62.2,137.5z"/>
		</g>
		<g>
			<path fill="#22B573" d="M75.1,159c-0.4-3.5-1.5-7.5-2.3-11.6l-2.6-11.3l-1.5-5.9h-4.5l-1.9,7l-2.6,10c-1.2,4.2-2.2,8.2-2.6,11.4
				c0,0.1,0,0.1,0,0.3l-0.7,5h2.6l4.8-17.4c1.2-4.4,2-7.6,2.6-11l0,0l0,0h0.1c0.1,1.5,0.4,3.1,0.7,4.7c0.1,1,0.4,2.2,0.7,3.2
				c0.1,1,0.4,1.9,0.7,3.1l1.9,7.6l2.3,9.8h3.2L75.1,159L75.1,159z"/>
		</g>
	</g>
</g>
<g id="Layer_3">
</g>
</svg>
